<mxfile host="app.diagrams.net" modified="2023-06-27T08:21:32.927Z" agent="Mozilla/5.0 (Windows NT 10.0; Win64; x64) AppleWebKit/537.36 (KHTML, like Gecko) Chrome/114.0.0.0 Safari/537.36" etag="fcYaHs3Rcd2Ur2u43Ixx" version="21.5.0" type="device">
  <diagram name="Page-1" id="35QIMck1kjliGCEiwalE">
    <mxGraphModel dx="2311" dy="1755" grid="0" gridSize="10" guides="1" tooltips="1" connect="1" arrows="1" fold="1" page="1" pageScale="1" pageWidth="850" pageHeight="1100" math="0" shadow="0">
      <root>
        <mxCell id="0" />
        <mxCell id="1" parent="0" />
        <mxCell id="kUg6d3Er4c6JJ_6QHC4T-1" value="user" style="whiteSpace=wrap;html=1;align=center;" parent="1" vertex="1">
          <mxGeometry x="-200" y="160" width="100" height="40" as="geometry" />
        </mxCell>
        <mxCell id="kUg6d3Er4c6JJ_6QHC4T-2" value="firstName" style="ellipse;whiteSpace=wrap;html=1;align=center;" parent="1" vertex="1">
          <mxGeometry x="-300" y="100" width="100" height="40" as="geometry" />
        </mxCell>
        <mxCell id="kUg6d3Er4c6JJ_6QHC4T-4" value="password" style="ellipse;whiteSpace=wrap;html=1;align=center;" parent="1" vertex="1">
          <mxGeometry x="-330" y="180" width="100" height="40" as="geometry" />
        </mxCell>
        <mxCell id="kUg6d3Er4c6JJ_6QHC4T-5" value="lastName" style="ellipse;whiteSpace=wrap;html=1;align=center;" parent="1" vertex="1">
          <mxGeometry x="-330" y="140" width="100" height="40" as="geometry" />
        </mxCell>
        <mxCell id="kUg6d3Er4c6JJ_6QHC4T-6" value="id" style="ellipse;whiteSpace=wrap;html=1;align=center;fontStyle=4;" parent="1" vertex="1">
          <mxGeometry x="-300" y="220" width="100" height="40" as="geometry" />
        </mxCell>
        <mxCell id="kUg6d3Er4c6JJ_6QHC4T-7" value="" style="endArrow=none;html=1;rounded=0;exitX=0;exitY=0.5;exitDx=0;exitDy=0;" parent="1" source="kUg6d3Er4c6JJ_6QHC4T-1" edge="1">
          <mxGeometry width="50" height="50" relative="1" as="geometry">
            <mxPoint x="270" y="260" as="sourcePoint" />
            <mxPoint x="-220" y="180" as="targetPoint" />
          </mxGeometry>
        </mxCell>
        <mxCell id="kUg6d3Er4c6JJ_6QHC4T-8" value="" style="endArrow=none;html=1;rounded=0;exitX=1;exitY=0.5;exitDx=0;exitDy=0;" parent="1" source="kUg6d3Er4c6JJ_6QHC4T-5" edge="1">
          <mxGeometry width="50" height="50" relative="1" as="geometry">
            <mxPoint x="270" y="260" as="sourcePoint" />
            <mxPoint x="-220" y="180" as="targetPoint" />
          </mxGeometry>
        </mxCell>
        <mxCell id="kUg6d3Er4c6JJ_6QHC4T-9" value="" style="endArrow=none;html=1;rounded=0;entryX=1;entryY=1;entryDx=0;entryDy=0;" parent="1" target="kUg6d3Er4c6JJ_6QHC4T-2" edge="1">
          <mxGeometry width="50" height="50" relative="1" as="geometry">
            <mxPoint x="-220" y="180" as="sourcePoint" />
            <mxPoint x="320" y="210" as="targetPoint" />
            <Array as="points" />
          </mxGeometry>
        </mxCell>
        <mxCell id="kUg6d3Er4c6JJ_6QHC4T-10" value="" style="endArrow=none;html=1;rounded=0;entryX=1;entryY=0.5;entryDx=0;entryDy=0;" parent="1" target="kUg6d3Er4c6JJ_6QHC4T-4" edge="1">
          <mxGeometry width="50" height="50" relative="1" as="geometry">
            <mxPoint x="-220" y="180" as="sourcePoint" />
            <mxPoint x="320" y="210" as="targetPoint" />
          </mxGeometry>
        </mxCell>
        <mxCell id="kUg6d3Er4c6JJ_6QHC4T-11" value="" style="endArrow=none;html=1;rounded=0;entryX=1;entryY=0;entryDx=0;entryDy=0;" parent="1" target="kUg6d3Er4c6JJ_6QHC4T-6" edge="1">
          <mxGeometry width="50" height="50" relative="1" as="geometry">
            <mxPoint x="-220" y="180" as="sourcePoint" />
            <mxPoint x="-210" y="220" as="targetPoint" />
          </mxGeometry>
        </mxCell>
        <mxCell id="kUg6d3Er4c6JJ_6QHC4T-12" value="fighter" style="whiteSpace=wrap;html=1;align=center;" parent="1" vertex="1">
          <mxGeometry x="273" y="-202" width="100" height="40" as="geometry" />
        </mxCell>
        <mxCell id="kUg6d3Er4c6JJ_6QHC4T-13" value="weight" style="ellipse;whiteSpace=wrap;html=1;align=center;" parent="1" vertex="1">
          <mxGeometry x="460" y="-202" width="100" height="40" as="geometry" />
        </mxCell>
        <mxCell id="kUg6d3Er4c6JJ_6QHC4T-14" value="height" style="ellipse;whiteSpace=wrap;html=1;align=center;" parent="1" vertex="1">
          <mxGeometry x="450" y="-242" width="100" height="40" as="geometry" />
        </mxCell>
        <mxCell id="kUg6d3Er4c6JJ_6QHC4T-15" value="lastName" style="ellipse;whiteSpace=wrap;html=1;align=center;" parent="1" vertex="1">
          <mxGeometry x="425" y="-282" width="100" height="40" as="geometry" />
        </mxCell>
        <mxCell id="kUg6d3Er4c6JJ_6QHC4T-16" value="firstName" style="ellipse;whiteSpace=wrap;html=1;align=center;" parent="1" vertex="1">
          <mxGeometry x="360" y="-312" width="100" height="40" as="geometry" />
        </mxCell>
        <mxCell id="kUg6d3Er4c6JJ_6QHC4T-17" value="" style="endArrow=none;html=1;rounded=0;exitX=1;exitY=0.5;exitDx=0;exitDy=0;" parent="1" source="kUg6d3Er4c6JJ_6QHC4T-12" edge="1">
          <mxGeometry width="50" height="50" relative="1" as="geometry">
            <mxPoint x="-70" y="-182" as="sourcePoint" />
            <mxPoint x="390" y="-182" as="targetPoint" />
          </mxGeometry>
        </mxCell>
        <mxCell id="kUg6d3Er4c6JJ_6QHC4T-18" value="" style="endArrow=none;html=1;rounded=0;entryX=0;entryY=0.5;entryDx=0;entryDy=0;" parent="1" target="kUg6d3Er4c6JJ_6QHC4T-14" edge="1">
          <mxGeometry width="50" height="50" relative="1" as="geometry">
            <mxPoint x="390" y="-182" as="sourcePoint" />
            <mxPoint x="450" y="-152" as="targetPoint" />
          </mxGeometry>
        </mxCell>
        <mxCell id="kUg6d3Er4c6JJ_6QHC4T-19" value="" style="endArrow=none;html=1;rounded=0;exitX=0;exitY=0.5;exitDx=0;exitDy=0;" parent="1" source="kUg6d3Er4c6JJ_6QHC4T-13" edge="1">
          <mxGeometry width="50" height="50" relative="1" as="geometry">
            <mxPoint x="400" y="-102" as="sourcePoint" />
            <mxPoint x="390" y="-182" as="targetPoint" />
          </mxGeometry>
        </mxCell>
        <mxCell id="kUg6d3Er4c6JJ_6QHC4T-20" value="" style="endArrow=none;html=1;rounded=0;entryX=0.5;entryY=1;entryDx=0;entryDy=0;" parent="1" target="kUg6d3Er4c6JJ_6QHC4T-16" edge="1">
          <mxGeometry width="50" height="50" relative="1" as="geometry">
            <mxPoint x="390" y="-182" as="sourcePoint" />
            <mxPoint x="450" y="-152" as="targetPoint" />
          </mxGeometry>
        </mxCell>
        <mxCell id="kUg6d3Er4c6JJ_6QHC4T-21" value="" style="endArrow=none;html=1;rounded=0;entryX=0;entryY=0.5;entryDx=0;entryDy=0;" parent="1" target="kUg6d3Er4c6JJ_6QHC4T-15" edge="1">
          <mxGeometry width="50" height="50" relative="1" as="geometry">
            <mxPoint x="390" y="-182" as="sourcePoint" />
            <mxPoint x="450" y="-152" as="targetPoint" />
          </mxGeometry>
        </mxCell>
        <mxCell id="kUg6d3Er4c6JJ_6QHC4T-24" value="id" style="ellipse;whiteSpace=wrap;html=1;align=center;fontStyle=4;" parent="1" vertex="1">
          <mxGeometry x="450" y="-162" width="100" height="40" as="geometry" />
        </mxCell>
        <mxCell id="kUg6d3Er4c6JJ_6QHC4T-25" value="roomNum" style="ellipse;whiteSpace=wrap;html=1;align=center;" parent="1" vertex="1">
          <mxGeometry x="425" y="-122" width="100" height="40" as="geometry" />
        </mxCell>
        <mxCell id="kUg6d3Er4c6JJ_6QHC4T-26" value="" style="endArrow=none;html=1;rounded=0;exitX=0;exitY=0.5;exitDx=0;exitDy=0;" parent="1" source="kUg6d3Er4c6JJ_6QHC4T-24" edge="1">
          <mxGeometry width="50" height="50" relative="1" as="geometry">
            <mxPoint x="400" y="-102" as="sourcePoint" />
            <mxPoint x="390" y="-182" as="targetPoint" />
          </mxGeometry>
        </mxCell>
        <mxCell id="kUg6d3Er4c6JJ_6QHC4T-27" value="" style="endArrow=none;html=1;rounded=0;exitX=0;exitY=0.5;exitDx=0;exitDy=0;" parent="1" source="kUg6d3Er4c6JJ_6QHC4T-25" edge="1">
          <mxGeometry width="50" height="50" relative="1" as="geometry">
            <mxPoint x="400" y="-102" as="sourcePoint" />
            <mxPoint x="390" y="-182" as="targetPoint" />
          </mxGeometry>
        </mxCell>
        <mxCell id="kUg6d3Er4c6JJ_6QHC4T-28" value="class" style="ellipse;whiteSpace=wrap;html=1;align=center;" parent="1" vertex="1">
          <mxGeometry x="360" y="-92" width="100" height="40" as="geometry" />
        </mxCell>
        <mxCell id="kUg6d3Er4c6JJ_6QHC4T-30" value="" style="endArrow=none;html=1;rounded=0;exitX=0.5;exitY=0;exitDx=0;exitDy=0;" parent="1" source="kUg6d3Er4c6JJ_6QHC4T-28" edge="1">
          <mxGeometry width="50" height="50" relative="1" as="geometry">
            <mxPoint x="400" y="-102" as="sourcePoint" />
            <mxPoint x="390" y="-182" as="targetPoint" />
          </mxGeometry>
        </mxCell>
        <mxCell id="kUg6d3Er4c6JJ_6QHC4T-37" value="" style="endArrow=none;html=1;rounded=0;entryX=0.5;entryY=0;entryDx=0;entryDy=0;" parent="1" target="kUg6d3Er4c6JJ_6QHC4T-40" edge="1">
          <mxGeometry relative="1" as="geometry">
            <mxPoint x="320" y="-143" as="sourcePoint" />
            <mxPoint x="320" y="560" as="targetPoint" />
          </mxGeometry>
        </mxCell>
        <mxCell id="kUg6d3Er4c6JJ_6QHC4T-38" value="M" style="resizable=0;html=1;whiteSpace=wrap;align=left;verticalAlign=bottom;" parent="kUg6d3Er4c6JJ_6QHC4T-37" connectable="0" vertex="1">
          <mxGeometry x="-1" relative="1" as="geometry">
            <mxPoint y="-362" as="offset" />
          </mxGeometry>
        </mxCell>
        <mxCell id="kUg6d3Er4c6JJ_6QHC4T-39" value="N" style="resizable=0;html=1;whiteSpace=wrap;align=right;verticalAlign=bottom;" parent="kUg6d3Er4c6JJ_6QHC4T-37" connectable="0" vertex="1">
          <mxGeometry x="1" relative="1" as="geometry" />
        </mxCell>
        <mxCell id="kUg6d3Er4c6JJ_6QHC4T-40" value="Fights in" style="shape=rhombus;perimeter=rhombusPerimeter;whiteSpace=wrap;html=1;align=center;" parent="1" vertex="1">
          <mxGeometry x="260" y="-2" width="120" height="60" as="geometry" />
        </mxCell>
        <mxCell id="kUg6d3Er4c6JJ_6QHC4T-41" value="" style="endArrow=none;html=1;rounded=0;exitX=0.5;exitY=1;exitDx=0;exitDy=0;" parent="1" source="kUg6d3Er4c6JJ_6QHC4T-12" edge="1">
          <mxGeometry relative="1" as="geometry">
            <mxPoint x="340" y="-162" as="sourcePoint" />
            <mxPoint x="320" y="-142" as="targetPoint" />
          </mxGeometry>
        </mxCell>
        <mxCell id="kUg6d3Er4c6JJ_6QHC4T-42" value="fighter2id" style="ellipse;whiteSpace=wrap;html=1;align=center;" parent="1" vertex="1">
          <mxGeometry x="388" y="533" width="100" height="40" as="geometry" />
        </mxCell>
        <mxCell id="kUg6d3Er4c6JJ_6QHC4T-43" value="fighter1id" style="ellipse;whiteSpace=wrap;html=1;align=center;" parent="1" vertex="1">
          <mxGeometry x="120" y="660" width="100" height="40" as="geometry" />
        </mxCell>
        <mxCell id="kUg6d3Er4c6JJ_6QHC4T-44" value="" style="endArrow=none;html=1;rounded=0;exitX=1;exitY=0.5;exitDx=0;exitDy=0;entryX=0.5;entryY=1;entryDx=0;entryDy=0;" parent="1" source="kUg6d3Er4c6JJ_6QHC4T-43" target="kUg6d3Er4c6JJ_6QHC4T-52" edge="1">
          <mxGeometry width="50" height="50" relative="1" as="geometry">
            <mxPoint x="400" y="620" as="sourcePoint" />
            <mxPoint x="270" y="580" as="targetPoint" />
          </mxGeometry>
        </mxCell>
        <mxCell id="kUg6d3Er4c6JJ_6QHC4T-45" value="" style="endArrow=none;html=1;rounded=0;exitX=1;exitY=0.5;exitDx=0;exitDy=0;entryX=0;entryY=0.5;entryDx=0;entryDy=0;" parent="1" target="kUg6d3Er4c6JJ_6QHC4T-42" edge="1">
          <mxGeometry width="50" height="50" relative="1" as="geometry">
            <mxPoint x="370" y="580" as="sourcePoint" />
            <mxPoint x="450" y="570" as="targetPoint" />
          </mxGeometry>
        </mxCell>
        <mxCell id="kUg6d3Er4c6JJ_6QHC4T-46" value="timeAndDate" style="ellipse;whiteSpace=wrap;html=1;align=center;" parent="1" vertex="1">
          <mxGeometry x="360" y="630" width="100" height="40" as="geometry" />
        </mxCell>
        <mxCell id="kUg6d3Er4c6JJ_6QHC4T-47" value="" style="endArrow=none;html=1;rounded=0;exitX=0.5;exitY=1;exitDx=0;exitDy=0;entryX=0.5;entryY=0;entryDx=0;entryDy=0;" parent="1" target="kUg6d3Er4c6JJ_6QHC4T-46" edge="1">
          <mxGeometry relative="1" as="geometry">
            <mxPoint x="320" y="600" as="sourcePoint" />
            <mxPoint x="500" y="600" as="targetPoint" />
          </mxGeometry>
        </mxCell>
        <mxCell id="kUg6d3Er4c6JJ_6QHC4T-49" value="id" style="ellipse;whiteSpace=wrap;html=1;align=center;fontStyle=4;" parent="1" vertex="1">
          <mxGeometry x="260" y="670" width="100" height="40" as="geometry" />
        </mxCell>
        <mxCell id="kUg6d3Er4c6JJ_6QHC4T-50" value="" style="endArrow=none;html=1;rounded=0;exitX=0.5;exitY=1;exitDx=0;exitDy=0;entryX=0.604;entryY=0.035;entryDx=0;entryDy=0;entryPerimeter=0;" parent="1" target="kUg6d3Er4c6JJ_6QHC4T-49" edge="1">
          <mxGeometry relative="1" as="geometry">
            <mxPoint x="320" y="600" as="sourcePoint" />
            <mxPoint x="500" y="600" as="targetPoint" />
          </mxGeometry>
        </mxCell>
        <mxCell id="kUg6d3Er4c6JJ_6QHC4T-52" value="event" style="whiteSpace=wrap;html=1;align=center;" parent="1" vertex="1">
          <mxGeometry x="270" y="560" width="100" height="40" as="geometry" />
        </mxCell>
        <mxCell id="kUg6d3Er4c6JJ_6QHC4T-53" value="ticket" style="whiteSpace=wrap;html=1;align=center;" parent="1" vertex="1">
          <mxGeometry x="-200" y="560" width="100" height="40" as="geometry" />
        </mxCell>
        <mxCell id="kUg6d3Er4c6JJ_6QHC4T-55" value="" style="endArrow=none;html=1;rounded=0;entryX=0.5;entryY=0;entryDx=0;entryDy=0;" parent="1" target="kUg6d3Er4c6JJ_6QHC4T-53" edge="1">
          <mxGeometry relative="1" as="geometry">
            <mxPoint x="-150" y="220" as="sourcePoint" />
            <mxPoint x="330" y="420" as="targetPoint" />
          </mxGeometry>
        </mxCell>
        <mxCell id="kUg6d3Er4c6JJ_6QHC4T-56" value="1" style="resizable=0;html=1;whiteSpace=wrap;align=left;verticalAlign=bottom;" parent="kUg6d3Er4c6JJ_6QHC4T-55" connectable="0" vertex="1">
          <mxGeometry x="-1" relative="1" as="geometry" />
        </mxCell>
        <mxCell id="kUg6d3Er4c6JJ_6QHC4T-57" value="N" style="resizable=0;html=1;whiteSpace=wrap;align=right;verticalAlign=bottom;" parent="kUg6d3Er4c6JJ_6QHC4T-55" connectable="0" vertex="1">
          <mxGeometry x="1" relative="1" as="geometry" />
        </mxCell>
        <mxCell id="kUg6d3Er4c6JJ_6QHC4T-58" value="" style="endArrow=none;html=1;rounded=0;exitX=0.5;exitY=1;exitDx=0;exitDy=0;" parent="1" source="kUg6d3Er4c6JJ_6QHC4T-1" edge="1">
          <mxGeometry relative="1" as="geometry">
            <mxPoint x="170" y="420" as="sourcePoint" />
            <mxPoint x="-150" y="220" as="targetPoint" />
          </mxGeometry>
        </mxCell>
        <mxCell id="kUg6d3Er4c6JJ_6QHC4T-59" value="Buys" style="shape=rhombus;perimeter=rhombusPerimeter;whiteSpace=wrap;html=1;align=center;" parent="1" vertex="1">
          <mxGeometry x="-210" y="360" width="120" height="60" as="geometry" />
        </mxCell>
        <mxCell id="kUg6d3Er4c6JJ_6QHC4T-60" value="" style="endArrow=none;html=1;rounded=0;exitX=1;exitY=0.5;exitDx=0;exitDy=0;entryX=0;entryY=0.5;entryDx=0;entryDy=0;" parent="1" source="kUg6d3Er4c6JJ_6QHC4T-53" target="kUg6d3Er4c6JJ_6QHC4T-52" edge="1">
          <mxGeometry relative="1" as="geometry">
            <mxPoint x="170" y="420" as="sourcePoint" />
            <mxPoint x="260" y="570" as="targetPoint" />
          </mxGeometry>
        </mxCell>
        <mxCell id="kUg6d3Er4c6JJ_6QHC4T-61" value="M" style="resizable=0;html=1;whiteSpace=wrap;align=left;verticalAlign=bottom;" parent="kUg6d3Er4c6JJ_6QHC4T-60" connectable="0" vertex="1">
          <mxGeometry x="-1" relative="1" as="geometry" />
        </mxCell>
        <mxCell id="kUg6d3Er4c6JJ_6QHC4T-62" value="" style="resizable=0;html=1;whiteSpace=wrap;align=right;verticalAlign=bottom;" parent="kUg6d3Er4c6JJ_6QHC4T-60" connectable="0" vertex="1">
          <mxGeometry x="1" relative="1" as="geometry" />
        </mxCell>
        <mxCell id="kUg6d3Er4c6JJ_6QHC4T-64" value="1" style="text;html=1;align=center;verticalAlign=middle;resizable=0;points=[];autosize=1;strokeColor=none;fillColor=none;" parent="1" vertex="1">
          <mxGeometry x="250" y="560" width="30" height="30" as="geometry" />
        </mxCell>
        <mxCell id="kUg6d3Er4c6JJ_6QHC4T-65" value="allowsEntranceTo" style="shape=rhombus;perimeter=rhombusPerimeter;whiteSpace=wrap;html=1;align=center;" parent="1" vertex="1">
          <mxGeometry x="30" y="550" width="120" height="60" as="geometry" />
        </mxCell>
        <mxCell id="kUg6d3Er4c6JJ_6QHC4T-67" value="ownerEmail" style="ellipse;whiteSpace=wrap;html=1;align=center;" parent="1" vertex="1">
          <mxGeometry x="-340" y="560" width="100" height="40" as="geometry" />
        </mxCell>
        <mxCell id="kUg6d3Er4c6JJ_6QHC4T-68" value="" style="endArrow=none;html=1;rounded=0;exitX=1;exitY=0.5;exitDx=0;exitDy=0;entryX=0;entryY=0.5;entryDx=0;entryDy=0;" parent="1" source="kUg6d3Er4c6JJ_6QHC4T-67" target="kUg6d3Er4c6JJ_6QHC4T-53" edge="1">
          <mxGeometry relative="1" as="geometry">
            <mxPoint x="170" y="420" as="sourcePoint" />
            <mxPoint x="330" y="420" as="targetPoint" />
          </mxGeometry>
        </mxCell>
        <mxCell id="kUg6d3Er4c6JJ_6QHC4T-69" value="eventID" style="ellipse;whiteSpace=wrap;html=1;align=center;" parent="1" vertex="1">
          <mxGeometry x="-330" y="630" width="100" height="40" as="geometry" />
        </mxCell>
        <mxCell id="kUg6d3Er4c6JJ_6QHC4T-70" value="" style="endArrow=none;html=1;rounded=0;exitX=0.5;exitY=1;exitDx=0;exitDy=0;entryX=0.5;entryY=0;entryDx=0;entryDy=0;" parent="1" source="kUg6d3Er4c6JJ_6QHC4T-53" target="kUg6d3Er4c6JJ_6QHC4T-69" edge="1">
          <mxGeometry relative="1" as="geometry">
            <mxPoint x="170" y="420" as="sourcePoint" />
            <mxPoint x="-150" y="630" as="targetPoint" />
          </mxGeometry>
        </mxCell>
        <mxCell id="kUg6d3Er4c6JJ_6QHC4T-71" value="Price" style="ellipse;whiteSpace=wrap;html=1;align=center;" parent="1" vertex="1">
          <mxGeometry x="-200" y="650" width="100" height="40" as="geometry" />
        </mxCell>
        <mxCell id="kUg6d3Er4c6JJ_6QHC4T-72" value="" style="endArrow=none;html=1;rounded=0;entryX=0.5;entryY=0;entryDx=0;entryDy=0;" parent="1" target="kUg6d3Er4c6JJ_6QHC4T-71" edge="1">
          <mxGeometry relative="1" as="geometry">
            <mxPoint x="-150" y="600" as="sourcePoint" />
            <mxPoint x="330" y="420" as="targetPoint" />
          </mxGeometry>
        </mxCell>
        <mxCell id="-6tM8S2rTD2KQOaXUbqa-1" value="" style="ellipse;whiteSpace=wrap;html=1;" parent="1" vertex="1">
          <mxGeometry x="-200" y="86" width="66" height="44" as="geometry" />
        </mxCell>
        <mxCell id="-6tM8S2rTD2KQOaXUbqa-2" value="" style="ellipse;whiteSpace=wrap;html=1;" parent="1" vertex="1">
          <mxGeometry x="-130" y="86" width="66" height="44" as="geometry" />
        </mxCell>
        <mxCell id="-6tM8S2rTD2KQOaXUbqa-3" value="" style="endArrow=none;html=1;rounded=0;entryX=0.5;entryY=1;entryDx=0;entryDy=0;" parent="1" target="-6tM8S2rTD2KQOaXUbqa-2" edge="1">
          <mxGeometry width="50" height="50" relative="1" as="geometry">
            <mxPoint x="-148" y="165" as="sourcePoint" />
            <mxPoint x="3" y="332" as="targetPoint" />
          </mxGeometry>
        </mxCell>
        <mxCell id="-6tM8S2rTD2KQOaXUbqa-5" value="" style="endArrow=none;html=1;rounded=0;entryX=0.614;entryY=0.965;entryDx=0;entryDy=0;entryPerimeter=0;exitX=0.5;exitY=0;exitDx=0;exitDy=0;" parent="1" source="kUg6d3Er4c6JJ_6QHC4T-1" target="-6tM8S2rTD2KQOaXUbqa-1" edge="1">
          <mxGeometry width="50" height="50" relative="1" as="geometry">
            <mxPoint x="-47" y="382" as="sourcePoint" />
            <mxPoint x="3" y="332" as="targetPoint" />
          </mxGeometry>
        </mxCell>
        <mxCell id="-6tM8S2rTD2KQOaXUbqa-6" value="email" style="text;html=1;strokeColor=none;fillColor=none;align=center;verticalAlign=middle;whiteSpace=wrap;rounded=0;" parent="1" vertex="1">
          <mxGeometry x="-204" y="93" width="60" height="30" as="geometry" />
        </mxCell>
        <mxCell id="-6tM8S2rTD2KQOaXUbqa-7" value="admin" style="text;html=1;strokeColor=none;fillColor=none;align=center;verticalAlign=middle;whiteSpace=wrap;rounded=0;" parent="1" vertex="1">
          <mxGeometry x="-124" y="96" width="60" height="30" as="geometry" />
        </mxCell>
        <mxCell id="-6tM8S2rTD2KQOaXUbqa-8" value="availableSeats" style="whiteSpace=wrap;html=1;align=center;" parent="1" vertex="1">
          <mxGeometry x="536" y="399" width="100" height="40" as="geometry" />
        </mxCell>
        <mxCell id="-6tM8S2rTD2KQOaXUbqa-9" value="have" style="shape=rhombus;perimeter=rhombusPerimeter;whiteSpace=wrap;html=1;align=center;" parent="1" vertex="1">
          <mxGeometry x="382" y="447" width="120" height="60" as="geometry" />
        </mxCell>
        <mxCell id="-6tM8S2rTD2KQOaXUbqa-10" value="" style="endArrow=none;html=1;rounded=0;entryX=0;entryY=1;entryDx=0;entryDy=0;exitX=0.843;exitY=0.011;exitDx=0;exitDy=0;exitPerimeter=0;" parent="1" source="kUg6d3Er4c6JJ_6QHC4T-52" target="-6tM8S2rTD2KQOaXUbqa-9" edge="1">
          <mxGeometry relative="1" as="geometry">
            <mxPoint x="-102" y="579" as="sourcePoint" />
            <mxPoint x="58" y="579" as="targetPoint" />
          </mxGeometry>
        </mxCell>
        <mxCell id="-6tM8S2rTD2KQOaXUbqa-11" value="" style="endArrow=none;html=1;rounded=0;entryX=0;entryY=0.5;entryDx=0;entryDy=0;exitX=1;exitY=0;exitDx=0;exitDy=0;" parent="1" source="-6tM8S2rTD2KQOaXUbqa-9" target="-6tM8S2rTD2KQOaXUbqa-8" edge="1">
          <mxGeometry relative="1" as="geometry">
            <mxPoint x="354" y="560" as="sourcePoint" />
            <mxPoint x="412" y="492" as="targetPoint" />
          </mxGeometry>
        </mxCell>
        <mxCell id="-6tM8S2rTD2KQOaXUbqa-12" value="Category A" style="ellipse;whiteSpace=wrap;html=1;align=center;" parent="1" vertex="1">
          <mxGeometry x="576" y="302" width="100" height="40" as="geometry" />
        </mxCell>
        <mxCell id="-6tM8S2rTD2KQOaXUbqa-13" value="Category B" style="ellipse;whiteSpace=wrap;html=1;align=center;" parent="1" vertex="1">
          <mxGeometry x="646" y="342" width="100" height="40" as="geometry" />
        </mxCell>
        <mxCell id="-6tM8S2rTD2KQOaXUbqa-14" value="Category C" style="ellipse;whiteSpace=wrap;html=1;align=center;" parent="1" vertex="1">
          <mxGeometry x="676" y="391" width="100" height="40" as="geometry" />
        </mxCell>
        <mxCell id="-6tM8S2rTD2KQOaXUbqa-15" value="VIP" style="ellipse;whiteSpace=wrap;html=1;align=center;" parent="1" vertex="1">
          <mxGeometry x="632" y="467" width="100" height="40" as="geometry" />
        </mxCell>
        <mxCell id="-6tM8S2rTD2KQOaXUbqa-16" value="" style="endArrow=none;html=1;rounded=0;exitX=0.5;exitY=1;exitDx=0;exitDy=0;entryX=0.5;entryY=0;entryDx=0;entryDy=0;" parent="1" source="-6tM8S2rTD2KQOaXUbqa-12" target="-6tM8S2rTD2KQOaXUbqa-8" edge="1">
          <mxGeometry relative="1" as="geometry">
            <mxPoint x="600" y="437" as="sourcePoint" />
            <mxPoint x="760" y="437" as="targetPoint" />
          </mxGeometry>
        </mxCell>
        <mxCell id="-6tM8S2rTD2KQOaXUbqa-17" value="" style="endArrow=none;html=1;rounded=0;exitX=0;exitY=1;exitDx=0;exitDy=0;" parent="1" source="-6tM8S2rTD2KQOaXUbqa-13" edge="1">
          <mxGeometry relative="1" as="geometry">
            <mxPoint x="636" y="352" as="sourcePoint" />
            <mxPoint x="636" y="399" as="targetPoint" />
            <Array as="points" />
          </mxGeometry>
        </mxCell>
        <mxCell id="-6tM8S2rTD2KQOaXUbqa-18" value="" style="endArrow=none;html=1;rounded=0;exitX=0;exitY=0.5;exitDx=0;exitDy=0;entryX=1;entryY=0.5;entryDx=0;entryDy=0;" parent="1" source="-6tM8S2rTD2KQOaXUbqa-14" target="-6tM8S2rTD2KQOaXUbqa-8" edge="1">
          <mxGeometry relative="1" as="geometry">
            <mxPoint x="671" y="386" as="sourcePoint" />
            <mxPoint x="646" y="409" as="targetPoint" />
            <Array as="points" />
          </mxGeometry>
        </mxCell>
        <mxCell id="-6tM8S2rTD2KQOaXUbqa-19" value="" style="endArrow=none;html=1;rounded=0;exitX=0.5;exitY=0;exitDx=0;exitDy=0;entryX=1;entryY=1;entryDx=0;entryDy=0;" parent="1" source="-6tM8S2rTD2KQOaXUbqa-15" target="-6tM8S2rTD2KQOaXUbqa-8" edge="1">
          <mxGeometry relative="1" as="geometry">
            <mxPoint x="686" y="421" as="sourcePoint" />
            <mxPoint x="646" y="429" as="targetPoint" />
            <Array as="points" />
          </mxGeometry>
        </mxCell>
        <mxCell id="-6tM8S2rTD2KQOaXUbqa-20" value="" style="endArrow=none;html=1;rounded=0;exitX=0.5;exitY=1;exitDx=0;exitDy=0;" parent="1" source="kUg6d3Er4c6JJ_6QHC4T-40" edge="1">
          <mxGeometry relative="1" as="geometry">
            <mxPoint x="600" y="38" as="sourcePoint" />
            <mxPoint x="318" y="169" as="targetPoint" />
          </mxGeometry>
        </mxCell>
        <mxCell id="-6tM8S2rTD2KQOaXUbqa-21" value="fight" style="whiteSpace=wrap;html=1;align=center;" parent="1" vertex="1">
          <mxGeometry x="270" y="167" width="100" height="40" as="geometry" />
        </mxCell>
        <mxCell id="-6tM8S2rTD2KQOaXUbqa-22" value="id" style="ellipse;whiteSpace=wrap;html=1;align=center;" parent="1" vertex="1">
          <mxGeometry x="376" y="100" width="100" height="40" as="geometry" />
        </mxCell>
        <mxCell id="-6tM8S2rTD2KQOaXUbqa-23" value="fighter2" style="ellipse;whiteSpace=wrap;html=1;align=center;" parent="1" vertex="1">
          <mxGeometry x="469" y="209" width="100" height="40" as="geometry" />
        </mxCell>
        <mxCell id="-6tM8S2rTD2KQOaXUbqa-24" value="" style="endArrow=none;html=1;rounded=0;exitX=0.5;exitY=1;exitDx=0;exitDy=0;" parent="1" source="-6tM8S2rTD2KQOaXUbqa-21" target="-6tM8S2rTD2KQOaXUbqa-25" edge="1">
          <mxGeometry relative="1" as="geometry">
            <mxPoint x="600" y="477" as="sourcePoint" />
            <mxPoint x="760" y="477" as="targetPoint" />
          </mxGeometry>
        </mxCell>
        <mxCell id="-6tM8S2rTD2KQOaXUbqa-25" value="is part of" style="shape=rhombus;perimeter=rhombusPerimeter;whiteSpace=wrap;html=1;align=center;" parent="1" vertex="1">
          <mxGeometry x="250" y="319" width="120" height="60" as="geometry" />
        </mxCell>
        <mxCell id="-6tM8S2rTD2KQOaXUbqa-26" value="" style="endArrow=none;html=1;rounded=0;exitX=0.5;exitY=1;exitDx=0;exitDy=0;entryX=0.5;entryY=0;entryDx=0;entryDy=0;" parent="1" source="-6tM8S2rTD2KQOaXUbqa-25" target="kUg6d3Er4c6JJ_6QHC4T-52" edge="1">
          <mxGeometry relative="1" as="geometry">
            <mxPoint x="600" y="477" as="sourcePoint" />
            <mxPoint x="760" y="477" as="targetPoint" />
          </mxGeometry>
        </mxCell>
        <mxCell id="-6tM8S2rTD2KQOaXUbqa-27" value="weightClass" style="ellipse;whiteSpace=wrap;html=1;align=center;" parent="1" vertex="1">
          <mxGeometry x="325" y="249" width="100" height="40" as="geometry" />
        </mxCell>
        <mxCell id="-6tM8S2rTD2KQOaXUbqa-28" value="winner" style="ellipse;whiteSpace=wrap;html=1;align=center;" parent="1" vertex="1">
          <mxGeometry x="425" y="244" width="100" height="40" as="geometry" />
        </mxCell>
        <mxCell id="-6tM8S2rTD2KQOaXUbqa-29" value="fighter1" style="ellipse;whiteSpace=wrap;html=1;align=center;" parent="1" vertex="1">
          <mxGeometry x="478" y="160" width="100" height="40" as="geometry" />
        </mxCell>
        <mxCell id="-6tM8S2rTD2KQOaXUbqa-30" value="time" style="ellipse;whiteSpace=wrap;html=1;align=center;" parent="1" vertex="1">
          <mxGeometry x="469" y="117" width="100" height="40" as="geometry" />
        </mxCell>
        <mxCell id="-6tM8S2rTD2KQOaXUbqa-31" style="edgeStyle=orthogonalEdgeStyle;rounded=0;orthogonalLoop=1;jettySize=auto;html=1;exitX=0.5;exitY=1;exitDx=0;exitDy=0;" parent="1" source="-6tM8S2rTD2KQOaXUbqa-28" target="-6tM8S2rTD2KQOaXUbqa-28" edge="1">
          <mxGeometry relative="1" as="geometry" />
        </mxCell>
        <mxCell id="-6tM8S2rTD2KQOaXUbqa-32" value="" style="endArrow=none;html=1;rounded=0;entryX=0.5;entryY=1;entryDx=0;entryDy=0;exitX=1;exitY=0;exitDx=0;exitDy=0;" parent="1" source="-6tM8S2rTD2KQOaXUbqa-21" target="-6tM8S2rTD2KQOaXUbqa-22" edge="1">
          <mxGeometry relative="1" as="geometry">
            <mxPoint x="321" y="144" as="sourcePoint" />
            <mxPoint x="481" y="144" as="targetPoint" />
          </mxGeometry>
        </mxCell>
        <mxCell id="-6tM8S2rTD2KQOaXUbqa-34" value="" style="endArrow=none;html=1;rounded=0;entryX=0;entryY=0.5;entryDx=0;entryDy=0;exitX=1;exitY=0;exitDx=0;exitDy=0;" parent="1" source="-6tM8S2rTD2KQOaXUbqa-21" target="-6tM8S2rTD2KQOaXUbqa-30" edge="1">
          <mxGeometry relative="1" as="geometry">
            <mxPoint x="380" y="177" as="sourcePoint" />
            <mxPoint x="436" y="150" as="targetPoint" />
          </mxGeometry>
        </mxCell>
        <mxCell id="-6tM8S2rTD2KQOaXUbqa-35" value="" style="endArrow=none;html=1;rounded=0;entryX=0;entryY=0.5;entryDx=0;entryDy=0;" parent="1" target="-6tM8S2rTD2KQOaXUbqa-29" edge="1">
          <mxGeometry relative="1" as="geometry">
            <mxPoint x="373" y="186" as="sourcePoint" />
            <mxPoint x="479" y="147" as="targetPoint" />
          </mxGeometry>
        </mxCell>
        <mxCell id="-6tM8S2rTD2KQOaXUbqa-36" value="" style="endArrow=none;html=1;rounded=0;entryX=0;entryY=0.5;entryDx=0;entryDy=0;exitX=1;exitY=0.5;exitDx=0;exitDy=0;" parent="1" source="-6tM8S2rTD2KQOaXUbqa-21" target="-6tM8S2rTD2KQOaXUbqa-23" edge="1">
          <mxGeometry relative="1" as="geometry">
            <mxPoint x="383" y="196" as="sourcePoint" />
            <mxPoint x="488" y="190" as="targetPoint" />
          </mxGeometry>
        </mxCell>
        <mxCell id="-6tM8S2rTD2KQOaXUbqa-37" value="" style="endArrow=none;html=1;rounded=0;entryX=0.404;entryY=-0.011;entryDx=0;entryDy=0;exitX=1;exitY=0.5;exitDx=0;exitDy=0;entryPerimeter=0;" parent="1" source="-6tM8S2rTD2KQOaXUbqa-21" target="-6tM8S2rTD2KQOaXUbqa-28" edge="1">
          <mxGeometry relative="1" as="geometry">
            <mxPoint x="380" y="197" as="sourcePoint" />
            <mxPoint x="479" y="239" as="targetPoint" />
          </mxGeometry>
        </mxCell>
        <mxCell id="-6tM8S2rTD2KQOaXUbqa-38" value="" style="endArrow=none;html=1;rounded=0;entryX=0.5;entryY=0;entryDx=0;entryDy=0;exitX=1;exitY=1;exitDx=0;exitDy=0;" parent="1" source="-6tM8S2rTD2KQOaXUbqa-21" target="-6tM8S2rTD2KQOaXUbqa-27" edge="1">
          <mxGeometry relative="1" as="geometry">
            <mxPoint x="380" y="197" as="sourcePoint" />
            <mxPoint x="475" y="254" as="targetPoint" />
          </mxGeometry>
        </mxCell>
        <mxCell id="v7dLPLKXPZk3qiykTlG5-2" value="price" style="whiteSpace=wrap;html=1;align=center;" vertex="1" parent="1">
          <mxGeometry x="704" y="586" width="100" height="40" as="geometry" />
        </mxCell>
        <mxCell id="v7dLPLKXPZk3qiykTlG5-3" value="costs" style="shape=rhombus;perimeter=rhombusPerimeter;whiteSpace=wrap;html=1;align=center;" vertex="1" parent="1">
          <mxGeometry x="469" y="579" width="120" height="60" as="geometry" />
        </mxCell>
        <mxCell id="v7dLPLKXPZk3qiykTlG5-4" value="" style="endArrow=none;html=1;rounded=0;exitX=1;exitY=0.75;exitDx=0;exitDy=0;entryX=0;entryY=0.5;entryDx=0;entryDy=0;" edge="1" parent="1" source="kUg6d3Er4c6JJ_6QHC4T-52" target="v7dLPLKXPZk3qiykTlG5-3">
          <mxGeometry relative="1" as="geometry">
            <mxPoint x="176" y="527" as="sourcePoint" />
            <mxPoint x="336" y="527" as="targetPoint" />
          </mxGeometry>
        </mxCell>
        <mxCell id="v7dLPLKXPZk3qiykTlG5-5" value="" style="endArrow=none;html=1;rounded=0;exitX=0;exitY=0.5;exitDx=0;exitDy=0;entryX=1;entryY=0.5;entryDx=0;entryDy=0;" edge="1" parent="1" source="v7dLPLKXPZk3qiykTlG5-2" target="v7dLPLKXPZk3qiykTlG5-3">
          <mxGeometry relative="1" as="geometry">
            <mxPoint x="380" y="600" as="sourcePoint" />
            <mxPoint x="479" y="619" as="targetPoint" />
          </mxGeometry>
        </mxCell>
        <mxCell id="v7dLPLKXPZk3qiykTlG5-6" value="Category A" style="ellipse;whiteSpace=wrap;html=1;align=center;" vertex="1" parent="1">
          <mxGeometry x="830" y="513" width="100" height="40" as="geometry" />
        </mxCell>
        <mxCell id="v7dLPLKXPZk3qiykTlG5-7" value="Category B" style="ellipse;whiteSpace=wrap;html=1;align=center;" vertex="1" parent="1">
          <mxGeometry x="857" y="579" width="100" height="40" as="geometry" />
        </mxCell>
        <mxCell id="v7dLPLKXPZk3qiykTlG5-8" value="Category C" style="ellipse;whiteSpace=wrap;html=1;align=center;" vertex="1" parent="1">
          <mxGeometry x="850" y="645" width="100" height="40" as="geometry" />
        </mxCell>
        <mxCell id="v7dLPLKXPZk3qiykTlG5-9" value="VIP" style="ellipse;whiteSpace=wrap;html=1;align=center;" vertex="1" parent="1">
          <mxGeometry x="773" y="710" width="100" height="40" as="geometry" />
        </mxCell>
        <mxCell id="v7dLPLKXPZk3qiykTlG5-10" value="" style="endArrow=none;html=1;rounded=0;entryX=0.5;entryY=1;entryDx=0;entryDy=0;exitX=0.5;exitY=0;exitDx=0;exitDy=0;" edge="1" parent="1" source="v7dLPLKXPZk3qiykTlG5-9" target="v7dLPLKXPZk3qiykTlG5-2">
          <mxGeometry relative="1" as="geometry">
            <mxPoint x="817" y="705" as="sourcePoint" />
            <mxPoint x="646" y="449" as="targetPoint" />
            <Array as="points" />
          </mxGeometry>
        </mxCell>
        <mxCell id="v7dLPLKXPZk3qiykTlG5-12" value="" style="endArrow=none;html=1;rounded=0;entryX=1;entryY=1;entryDx=0;entryDy=0;exitX=0;exitY=0.5;exitDx=0;exitDy=0;" edge="1" parent="1" source="v7dLPLKXPZk3qiykTlG5-8" target="v7dLPLKXPZk3qiykTlG5-2">
          <mxGeometry relative="1" as="geometry">
            <mxPoint x="833" y="720" as="sourcePoint" />
            <mxPoint x="764" y="636" as="targetPoint" />
            <Array as="points" />
          </mxGeometry>
        </mxCell>
        <mxCell id="v7dLPLKXPZk3qiykTlG5-13" value="" style="endArrow=none;html=1;rounded=0;entryX=1;entryY=0.5;entryDx=0;entryDy=0;exitX=0;exitY=0.5;exitDx=0;exitDy=0;" edge="1" parent="1" source="v7dLPLKXPZk3qiykTlG5-7" target="v7dLPLKXPZk3qiykTlG5-2">
          <mxGeometry relative="1" as="geometry">
            <mxPoint x="860" y="675" as="sourcePoint" />
            <mxPoint x="814" y="636" as="targetPoint" />
            <Array as="points" />
          </mxGeometry>
        </mxCell>
        <mxCell id="v7dLPLKXPZk3qiykTlG5-14" value="" style="endArrow=none;html=1;rounded=0;entryX=0;entryY=0.5;entryDx=0;entryDy=0;" edge="1" parent="1" source="v7dLPLKXPZk3qiykTlG5-2" target="v7dLPLKXPZk3qiykTlG5-6">
          <mxGeometry relative="1" as="geometry">
            <mxPoint x="867" y="609" as="sourcePoint" />
            <mxPoint x="814" y="616" as="targetPoint" />
            <Array as="points" />
          </mxGeometry>
        </mxCell>
      </root>
    </mxGraphModel>
  </diagram>
</mxfile>
